<svg xmlns="http://www.w3.org/2000/svg" version="1.1" xmlns:xlink="http://www.w3.org/1999/xlink" width="490.93427943106633" height="200" viewBox="0.04000000283122063 9.5600004196167 131.8800048828125 47.79999923706055"><path d="M10.80 24.84L10.80 24.84Q10.52 24.84 10.38 24.60Q10.24 24.36 10.20 24.32L10.20 24.32Q9.76 24.76 8.98 25.44Q8.20 26.12 6.20 27.24Q4.20 28.36 2.64 28.36L2.64 28.36Q0.04 28.36 0.04 26.36L0.04 26.36Q0.04 24.20 2.80 20.76Q5.56 17.32 9.66 14.62Q13.76 11.92 17 11.92L17 11.92Q18.88 11.92 19.86 13.04Q20.84 14.16 20.84 15.94Q20.84 17.72 19.28 21.04L19.28 21.04Q25.52 16.40 27.96 16.40L27.96 16.40Q28.44 16.40 28.76 16.68Q29.08 16.96 29.08 17.44L29.08 17.44Q29.08 18.24 25.82 22.60Q22.56 26.96 19.28 31.72Q16 36.48 16 38.28L16 38.28Q16 39.40 17.24 39.40L17.24 39.40Q19.12 39.40 22.56 35.96L22.56 35.96Q23.08 35.44 23.44 35.44L23.44 35.44Q23.68 35.44 23.68 35.78Q23.68 36.12 22.40 37.26Q21.12 38.40 19.22 39.48Q17.32 40.56 15.92 40.56L15.92 40.56Q14.04 40.56 14.04 38.98Q14.04 37.40 16.02 34.10Q18 30.80 20.40 27.68L20.40 27.68Q26.76 19.48 26.76 18.12L26.76 18.12Q26.76 17.88 26.48 17.88L26.48 17.88Q24.20 17.88 18.72 22.20L18.72 22.20Q15.64 28.24 10.34 34.76Q5.04 41.28 3.20 41.28L3.20 41.28Q2.20 41.28 2.20 40.44L2.20 40.44Q2.20 37.84 6.68 32.70Q11.16 27.56 17 22.84L17 22.84Q19.20 18.44 19.20 15.96L19.20 15.96Q19.20 12.92 15.96 12.92L15.96 12.92Q13.48 12.92 9.98 15.34Q6.48 17.76 4 20.84Q1.52 23.92 1.52 25.72L1.52 25.72Q1.52 27.24 3.52 27.24L3.52 27.24Q4.88 27.24 7.40 25.60Q9.92 23.96 10.28 23.32L10.28 23.32Q12 20.28 12.24 19.96L12.24 19.96Q13.08 18.64 13.60 18.64L13.60 18.64Q13.80 18.64 13.84 18.92Q13.88 19.20 13.78 19.46Q13.68 19.72 13.44 20.10Q13.20 20.48 13 20.78Q12.80 21.08 12.46 21.56Q12.12 22.04 11.86 22.40Q11.60 22.76 11.44 23.08L11.44 23.08Q11.20 23.56 11.20 24.20Q11.20 24.84 10.80 24.84ZM3.72 40.32L3.72 40.32Q4.80 40.28 9.10 34.94Q13.40 29.60 16.28 24.24L16.28 24.24Q11.24 28.56 7.40 33.20Q3.56 37.84 3.56 40.04L3.56 40.04Q3.56 40.32 3.72 40.32ZM32.28 35.20L32.28 35.20Q32.04 35.20 32.04 35.02Q32.04 34.84 32.32 34.60L32.32 34.60Q33.64 33.52 33.64 32.64L33.64 32.64Q33.64 32.08 32.64 32L32.64 32Q30.84 32.04 28.34 34.60Q25.84 37.16 25.84 38.44L25.84 38.44Q25.84 38.88 26.34 38.88Q26.84 38.88 27.68 38.20L27.68 38.20Q28.44 37.72 30.52 35.80L30.52 35.80Q31 35.32 31.44 35.32L31.44 35.32Q32 35.32 32 35.84L32 35.84Q32 36.04 31.88 36.16Q31.76 36.28 31.44 36.66Q31.12 37.04 30.88 37.36L30.88 37.36Q30.16 38.40 30.16 38.72L30.16 38.72Q30.16 39.52 30.80 39.52L30.80 39.52Q31.64 39.52 33.96 37.98Q36.28 36.44 38.20 34.88L38.20 34.88L40.12 33.36Q40.40 33.16 40.64 33.16Q40.88 33.16 40.88 33.44L40.88 33.44L40.88 33.52Q37.80 36.12 34.38 38.40Q30.96 40.68 29.88 40.68L29.88 40.68Q28.60 40.68 28.60 39.32L28.60 39.32Q28.60 39 28.72 38.72Q28.84 38.44 28.84 38.32Q28.84 38.20 28.76 38.16L28.76 38.16Q28.64 38.16 27.22 39.24Q25.80 40.32 24.74 40.32Q23.68 40.32 23.68 39.20Q23.68 38.08 25.18 36.18Q26.68 34.28 29.20 32.72Q31.72 31.16 34.12 31.16L34.12 31.16Q34.68 31.16 35.06 31.44Q35.44 31.72 35.44 32.30Q35.44 32.88 34.28 34.04Q33.12 35.20 32.28 35.20ZM49.28 33.52L49.28 33.52L50.20 33.52Q46.48 36.88 42.84 37.36L42.84 37.36Q41.96 38.64 40.78 39.56Q39.60 40.48 38.80 40.48L38.80 40.48Q37.84 40.48 37.84 39.36Q37.84 38.24 38.84 36.16L38.84 36.16Q37.08 34.60 37.08 32.68L37.08 32.68Q37.08 31.64 37.80 31Q38.52 30.36 39.84 30.36Q41.16 30.36 41.96 30.76L41.96 30.76Q45.88 24.68 50.96 17.92L50.96 17.92L52.68 15.64Q53.08 15.20 53.48 15.20L53.48 15.20Q54.08 15.20 54.16 15.80L54.16 15.80L54.16 16.08Q54.16 16.16 53.96 16.44L53.96 16.44Q46.08 26.80 42.96 31.40L42.96 31.40Q44 32.44 44 33.84Q44 35.24 43.32 36.60L43.32 36.60Q46.04 36.28 49.28 33.52ZM38.28 32.76L38.28 32.76Q38.28 33.96 39.36 35.12L39.36 35.12Q40.12 33.72 41.56 31.44L41.56 31.44Q41 31.12 40.32 31.12L40.32 31.12Q38.28 31.12 38.28 32.76ZM40.28 35.88L40.28 35.88Q41.24 36.48 42.24 36.60L42.24 36.60Q42.96 35.32 42.96 34.24Q42.96 33.16 42.40 32.28L42.40 32.28Q41.04 34.28 40.28 35.88ZM40.12 38.72L40.12 38.72Q40.80 38.72 41.76 37.40L41.76 37.40Q40.80 37.40 39.84 36.88L39.84 36.88Q39.64 37.56 39.64 37.88L39.64 37.88Q39.64 38.72 40.12 38.72ZM53.74 27.92Q54.12 27.92 54.34 28.16Q54.56 28.40 54.56 28.84Q54.56 29.28 53.96 29.96Q53.36 30.64 52.92 30.64Q52.48 30.64 52.28 30.38Q52.08 30.12 52.08 29.78Q52.08 29.44 52.72 28.68Q53.36 27.92 53.74 27.92ZM56.16 34.04L57.04 33.32Q57.36 33.12 57.54 33.12Q57.72 33.12 57.72 33.36L57.72 33.36L57.72 33.48Q57.88 33.48 55.58 35.24Q53.28 37 50.66 38.76Q48.04 40.52 47.36 40.52L47.36 40.52Q46.20 40.52 46.20 39.56L46.20 39.56Q46.20 38.40 48.20 35.18Q50.20 31.96 51.12 31.96L51.12 31.96Q51.80 31.96 51.80 32.48Q51.80 33 49.96 35.32Q48.12 37.64 48.12 38.64L48.12 38.64Q48.12 39.20 48.54 39.20Q48.96 39.20 50.64 38.08L50.64 38.08Q53.64 36.08 56.16 34.04L56.16 34.04ZM65.60 34.20L66.60 33.36Q66.88 33.16 67.12 33.16Q67.36 33.16 67.36 33.44L67.36 33.44L67.36 33.52Q63.20 36.96 61.04 38.32L61.04 38.32Q58.24 40.44 56.32 40.44L56.32 40.44Q54.64 40.44 54.64 38.44L54.64 38.44Q54.64 35.76 58.10 30.50Q61.56 25.24 65.88 21.04Q70.20 16.84 72.40 16.84L72.40 16.84Q73.40 16.84 73.40 17.72L73.40 17.72Q73.40 19.92 68.14 24.98Q62.88 30.04 57.80 33.60L57.80 33.60Q56.32 36.44 56.32 37.92Q56.32 39.40 57.36 39.40Q58.40 39.40 60.08 38.20L60.08 38.20Q62.92 36.52 65.60 34.20L65.60 34.20ZM71.40 18.12L71.40 18.12Q69.72 18.12 65.44 22.96Q61.16 27.80 58.36 32.64L58.36 32.64Q62.96 29.36 67.36 24.62Q71.76 19.88 71.76 18.48L71.76 18.48Q71.76 18.12 71.40 18.12ZM80.88 16.24L80.88 16.24L72 15.80Q71.92 15.80 71.64 16.04Q71.36 16.28 71.16 16.28Q70.96 16.28 70.88 16.24L70.88 16.24Q68.52 15.40 68.52 14.20L68.52 14.20Q68.52 13.60 69.20 13.60L69.20 13.60Q69.60 13.60 74.38 14.22Q79.16 14.84 84.68 14.84Q90.20 14.84 95.28 14.24L95.28 14.24Q100.68 9.56 106 9.56L106 9.56Q108.20 9.56 108.20 10.60L108.20 10.60Q108.20 13.32 95.88 15.12L95.88 15.12Q91.80 19.20 86 28.44L86 28.44Q83.84 31.84 81.72 35L81.72 35Q77.04 41.96 74.08 41.96L74.08 41.96Q73 41.96 73 41.02Q73 40.08 73.80 38.84L73.80 38.84Q74.56 37.64 75 37.64L75 37.64Q75.04 37.64 75.04 37.64L75.04 37.64Q75.56 37.64 75.56 38.24L75.56 38.24L75.40 39Q75.40 39.20 75.56 39.20L75.56 39.20Q77.68 39.20 82.76 30.56L82.76 30.56Q84.80 27.08 87.96 22.64Q91.12 18.20 94.08 15.36L94.08 15.36Q87.16 16.24 80.88 16.24ZM105.04 10.32L105.04 10.32Q101.20 10.32 97.08 14L97.08 14Q100.04 13.56 102.18 12.92Q104.32 12.28 105.20 11.72Q106.08 11.16 106.08 10.74Q106.08 10.32 105.04 10.32ZM94.64 35.20L94.64 35.20Q94.40 35.20 94.40 35.02Q94.40 34.84 94.68 34.60L94.68 34.60Q96 33.52 96 32.64L96 32.64Q96 32.08 95 32L95 32Q93.20 32.04 90.70 34.60Q88.20 37.16 88.20 38.44L88.20 38.44Q88.20 38.88 88.70 38.88Q89.20 38.88 90.04 38.20L90.04 38.20Q90.80 37.72 92.88 35.80L92.88 35.80Q93.36 35.32 93.80 35.32L93.80 35.32Q94.36 35.32 94.36 35.84L94.36 35.84Q94.36 36.04 94.24 36.16Q94.12 36.28 93.80 36.66Q93.48 37.04 93.24 37.36L93.24 37.36Q92.52 38.40 92.52 38.72L92.52 38.72Q92.52 39.52 93.16 39.52L93.16 39.52Q94.00 39.52 96.32 37.98Q98.64 36.44 100.56 34.88L100.56 34.88L102.48 33.36Q102.76 33.16 103 33.16Q103.24 33.16 103.24 33.44L103.24 33.44L103.24 33.52Q100.16 36.12 96.74 38.40Q93.32 40.68 92.24 40.68L92.24 40.68Q90.96 40.68 90.96 39.32L90.96 39.32Q90.96 39 91.08 38.72Q91.20 38.44 91.20 38.32Q91.20 38.20 91.12 38.16L91.12 38.16Q91.00 38.16 89.58 39.24Q88.16 40.32 87.10 40.32Q86.04 40.32 86.04 39.20Q86.04 38.08 87.54 36.18Q89.04 34.28 91.56 32.72Q94.08 31.16 96.48 31.16L96.48 31.16Q97.04 31.16 97.42 31.44Q97.80 31.72 97.80 32.30Q97.80 32.88 96.64 34.04Q95.48 35.20 94.64 35.20ZM110.52 34.04L111.36 33.36Q111.64 33.16 111.88 33.16Q112.12 33.16 112.12 33.44L112.12 33.44L112.12 33.52Q109.12 35.92 106.20 38.02Q103.28 40.12 101.92 40.12L101.92 40.12Q100.92 40.12 100.92 39.04Q100.92 37.96 101.88 36.88Q102.84 35.80 103.78 35Q104.72 34.20 104.72 33.94Q104.72 33.68 104.42 33.34Q104.12 33 103.92 32.88L103.92 32.88Q103.24 33.56 100.96 35.36L100.96 35.36L100.80 34.76Q103.32 32.76 103.72 32.08L103.72 32.08L103.72 31.72Q103.72 30.72 103.92 30.36Q104.12 30 104.88 29.36Q105.64 28.72 105.92 28.72Q106.20 28.72 106.42 28.92Q106.64 29.12 106.64 29.32Q106.64 29.52 106.50 29.78Q106.36 30.04 106.22 30.22Q106.08 30.40 105.84 30.66Q105.60 30.92 105.54 31.02Q105.48 31.12 105.42 31.36Q105.36 31.60 105.16 31.76Q104.96 31.92 104.96 32.16Q104.96 32.40 105.28 33.22Q105.60 34.04 105.60 34.42Q105.60 34.80 104.12 36.22Q102.64 37.64 102.64 38.52L102.64 38.52Q102.64 39 103.08 39L103.08 39Q103.64 39 105.16 38L105.16 38L105.64 37.68Q108.24 35.88 110.52 34.04L110.52 34.04ZM115.66 27.92Q116.04 27.92 116.26 28.16Q116.48 28.40 116.48 28.84Q116.48 29.28 115.88 29.96Q115.28 30.64 114.84 30.64Q114.40 30.64 114.20 30.38Q114 30.12 114 29.78Q114 29.44 114.64 28.68Q115.28 27.92 115.66 27.92ZM118.08 34.04L118.96 33.32Q119.28 33.12 119.46 33.12Q119.64 33.12 119.64 33.36L119.64 33.36L119.64 33.48Q119.80 33.48 117.50 35.24Q115.20 37 112.58 38.76Q109.96 40.52 109.28 40.52L109.28 40.52Q108.12 40.52 108.12 39.56L108.12 39.56Q108.12 38.40 110.12 35.18Q112.12 31.96 113.04 31.96L113.04 31.96Q113.72 31.96 113.72 32.48Q113.72 33 111.88 35.32Q110.04 37.64 110.04 38.64L110.04 38.64Q110.04 39.20 110.46 39.20Q110.88 39.20 112.56 38.08L112.56 38.08Q115.56 36.08 118.08 34.04L118.08 34.04ZM130.24 34.12L131.16 33.36Q131.44 33.16 131.68 33.16Q131.92 33.16 131.92 33.44L131.92 33.44L131.92 33.52Q128.36 36.48 125.26 38.56Q122.16 40.64 119.96 40.64L119.96 40.64Q119.76 40.68 119.76 41.16L119.76 41.16Q119.76 43.36 117.62 47.30Q115.48 51.24 112.72 54.30Q109.96 57.36 108.40 57.36L108.40 57.36Q107.96 57.36 107.60 57.02Q107.24 56.68 107.24 56.24L107.24 56.24Q107.24 55.48 111.60 49.40Q115.96 43.32 119.48 38.68L119.48 38.68Q119.52 38.60 119.52 38.48Q119.52 38.36 119.36 38.36L119.36 38.36Q117.40 40.08 115.72 40.08L115.72 40.08Q114.60 40.08 114.60 39.16L114.60 39.16Q114.60 37.88 116.36 35.76Q118.12 33.64 120.90 31.88Q123.68 30.12 126.04 30.12L126.04 30.12Q127.28 30.12 127.28 30.98Q127.28 31.84 126.08 33.06Q124.88 34.28 124.04 34.28L124.04 34.28Q123.88 34.28 123.88 34.02Q123.88 33.76 124.40 33.48Q124.92 33.20 125.40 32.60Q125.88 32 125.88 31.56L125.88 31.56Q125.88 30.96 125.08 30.96L125.08 30.96Q123.16 30.96 119.94 33.92Q116.72 36.88 116.72 38.28L116.72 38.28Q116.72 38.80 117.54 38.80Q118.36 38.80 121.44 36.12L121.44 36.12Q122.24 35.32 122.50 35.28Q122.76 35.24 123.16 35.24Q123.56 35.24 123.54 35.66Q123.52 36.08 122.06 37.74Q120.60 39.40 120.60 39.54Q120.60 39.68 120.76 39.72L120.76 39.72Q121.56 39.72 122.60 39.30Q123.64 38.88 124.28 38.48L124.28 38.48L124.92 38.04Q127.16 36.60 130.24 34.12L130.24 34.12ZM109.24 55.56L109.24 55.56Q109.24 55.88 109.48 55.88L109.48 55.88Q110.08 55.88 111.58 54.40Q113.08 52.92 114.62 50.90Q116.16 48.88 117.36 46.50Q118.56 44.12 118.56 42.60L118.56 42.60Q118.56 42.36 118.48 42.36L118.48 42.36Q117.92 42.36 113.58 48.50Q109.24 54.64 109.24 55.56Z" fill="black"></path></svg>