<svg width="265" height="265" viewBox="0 0 265 265" fill="none" xmlns="http://www.w3.org/2000/svg">
<path fill-rule="evenodd" clip-rule="evenodd" d="M132.5 265C205.678 265 265 205.678 265 132.5C265 59.3223 205.678 0 132.5 0C59.3223 0 0 59.3223 0 132.5C0 205.678 59.3223 265 132.5 265ZM222.5 43.75C220.5 41.75 218.083 40.9167 215.25 41.25C210.417 41.75 206.167 42.1667 202.5 42.5C199 42.6667 195.583 42.75 192.25 42.75C188.917 42.75 185.417 42.6667 181.75 42.5C178.25 42.1667 174.083 41.75 169.25 41.25C166.417 40.9167 163.917 41.75 161.75 43.75C159.75 45.75 158.75 48.1667 158.75 51C158.75 53.8333 159.75 56.25 161.75 58.25C163.917 60.0833 166.417 60.9167 169.25 60.75C171.25 60.4167 173.417 60.1667 175.75 60C178.25 59.8333 180.667 59.6667 183 59.5C184.5 59.5 185.25 60.25 185.25 61.75V190C185.25 191.333 184.833 192 184 192C183.5 192 183 191.583 182.5 190.75L95.75 56C93.25 52.1667 89.9167 49.1667 85.75 47C81.75 44.8333 77.4167 43.6667 72.75 43.5C70.5833 43.1667 68.3333 42.8333 66 42.5C63.6667 42.1667 61.4167 41.8333 59.25 41.5C56.0833 41 53.3333 41.8333 51 44C48.6667 46 47.5 48.5833 47.5 51.75C47.5 54.75 48.5 57.3333 50.5 59.5C52.5 61.5 54.9167 62.5 57.75 62.5C59.25 62.5 60.6667 62.25 62 61.75C63.5 61.25 65 61 66.5 61C67.8333 61 68.5 61.75 68.5 63.25V207.75C68.5 209.083 67.9167 209.75 66.75 209.75H66.25L57.75 209C55.0833 208.667 52.6667 209.5 50.5 211.5C48.5 213.5 47.5 215.917 47.5 218.75C47.5 221.583 48.5 223.917 50.5 225.75C52.6667 227.75 55.0833 228.667 57.75 228.5C62.5833 228 66.8333 227.583 70.5 227.25C74.1667 227.083 77.5833 227 80.75 227C84.0833 227 87.5833 227.083 91.25 227.25C94.9167 227.583 99.0833 228 103.75 228.5C106.583 228.667 109 227.75 111 225.75C113.167 223.917 114.25 221.583 114.25 218.75C114.25 215.917 113.167 213.5 111 211.5C109 209.5 106.583 208.667 103.75 209C101.75 209.167 99.5 209.333 97 209.5C94.6667 209.667 92.3333 209.917 90 210.25C88.5 210.25 87.75 209.5 87.75 208V83C87.75 81.6667 88.1667 81 89 81C89.5 81 90 81.4167 90.5 82.25L180.5 220.5C183.5 224.833 187.583 227 192.75 227C196.083 227 198.833 225.917 201 223.75C203.333 221.417 204.5 218.583 204.5 215.25V62C204.5 60.6667 205.083 60 206.25 60H206.75L215.25 60.75C218.083 60.9167 220.5 60.0833 222.5 58.25C224.5 56.25 225.5 53.8333 225.5 51C225.5 48.1667 224.5 45.75 222.5 43.75Z" fill="#393B44"/>
</svg>
